<svg width="115" height="107" viewBox="0 0 115 107" fill="none" xmlns="http://www.w3.org/2000/svg">
<path d="M100.625 71.3178V35.6589C100.623 34.0956 100.18 32.5602 99.3386 31.2067C98.4976 29.8533 97.2887 28.7293 95.8333 27.9477L62.2917 10.1182C60.8348 9.33579 59.1822 8.92387 57.5 8.92387C55.8178 8.92387 54.1652 9.33579 52.7083 10.1182L19.1667 27.9477C17.7113 28.7293 16.5024 29.8533 15.6614 31.2067C14.8204 32.5602 14.3767 34.0956 14.375 35.6589V71.3178C14.3767 72.8811 14.8204 74.4165 15.6614 75.77C16.5024 77.1235 17.7113 78.2474 19.1667 79.0291L52.7083 96.8585C54.1652 97.6409 55.8178 98.0529 57.5 98.0529C59.1822 98.0529 60.8348 97.6409 62.2917 96.8585L95.8333 79.0291C97.2887 78.2474 98.4976 77.1235 99.3386 75.77C100.18 74.4165 100.623 72.8811 100.625 71.3178Z" stroke="#D8B14C" stroke-width="5" stroke-linecap="round" stroke-linejoin="round"/>
<path d="M15.6687 31.0233L57.5 53.5329L99.3312 31.0233" stroke="#D8B14C" stroke-width="5" stroke-linecap="round" stroke-linejoin="round"/>
<path d="M57.5 98.4186V53.4884" stroke="#D8B14C" stroke-width="5" stroke-linecap="round" stroke-linejoin="round"/>
<path d="M51.28 34.1116C51.48 34.1116 51.7 34.1183 51.94 34.1316C52.1933 34.1316 52.4333 34.1516 52.66 34.1916C52.9 34.2183 53.1133 34.2716 53.3 34.3516C53.5 34.4316 53.64 34.5383 53.72 34.6716C53.92 35.0183 53.98 35.3316 53.9 35.6116C53.8333 35.8783 53.6867 36.085 53.46 36.2316C53.22 36.405 52.94 36.5183 52.62 36.5716C52.3 36.6383 52.0067 36.665 51.74 36.6516C51.1933 36.625 50.6133 36.6183 50 36.6316C49.3867 36.6583 48.8067 36.6783 48.26 36.6916C48.0733 36.6916 47.8733 36.6916 47.66 36.6916C47.46 36.705 47.2667 36.6916 47.08 36.6516C46.8933 36.625 46.7133 36.565 46.54 36.4716C46.38 36.3783 46.24 36.2316 46.12 36.0316C45.96 35.7783 45.92 35.525 46 35.2716C46.0933 35.005 46.2 34.7583 46.32 34.5316C46.5067 34.1983 46.7267 33.8716 46.98 33.5516C47.2467 33.2316 47.4733 32.9583 47.66 32.7316L50.16 29.4516L48.14 29.5116C47.98 29.5116 47.8067 29.5116 47.62 29.5116C47.4467 29.5116 47.2667 29.4983 47.08 29.4716C46.8933 29.4316 46.72 29.385 46.56 29.3316C46.4 29.2783 46.26 29.1983 46.14 29.0916C46.02 28.9716 45.9333 28.8383 45.88 28.6916C45.8267 28.5316 45.8 28.3716 45.8 28.2116C45.8133 28.0516 45.8467 27.8983 45.9 27.7516C45.9667 27.5916 46.0533 27.4516 46.16 27.3316C46.24 27.2516 46.34 27.185 46.46 27.1316C46.5933 27.0783 46.74 27.0383 46.9 27.0116C47.06 26.985 47.22 26.9716 47.38 26.9716C47.5533 26.9583 47.7133 26.9516 47.86 26.9516C48.1533 26.9516 48.48 26.9516 48.84 26.9516C49.2 26.9516 49.5467 26.9516 49.88 26.9516C50.2267 26.9383 50.5467 26.9316 50.84 26.9316C51.1467 26.9183 51.3933 26.9116 51.58 26.9116C51.82 26.9116 52.06 26.905 52.3 26.8916C52.54 26.8783 52.7667 26.8983 52.98 26.9516C53.1933 27.005 53.3733 27.105 53.52 27.2516C53.68 27.385 53.78 27.605 53.82 27.9116C53.8467 28.1116 53.8333 28.3116 53.78 28.5116C53.74 28.6983 53.6667 28.885 53.56 29.0716C53.4667 29.245 53.3533 29.425 53.22 29.6116C53.0867 29.785 52.9533 29.9516 52.82 30.1116L49.72 34.1116H51.28ZM58.0661 28.9316C58.0661 29.305 58.0661 29.725 58.0661 30.1916C58.0794 30.6583 58.0861 31.145 58.0861 31.6516C58.0861 32.145 58.0861 32.6383 58.0861 33.1316C58.0861 33.6116 58.0794 34.0583 58.0661 34.4716C58.0528 34.6716 58.0328 34.8916 58.0061 35.1316C57.9794 35.3583 57.9261 35.5716 57.8461 35.7716C57.7661 35.9716 57.6394 36.1383 57.4661 36.2716C57.3061 36.3916 57.0861 36.445 56.8061 36.4316C56.3928 36.405 56.0928 36.225 55.9061 35.8916C55.7328 35.5583 55.6328 35.0916 55.6061 34.4916C55.6061 34.185 55.5994 33.8316 55.5861 33.4316C55.5861 33.0316 55.5794 32.625 55.5661 32.2116C55.5661 31.7983 55.5661 31.3983 55.5661 31.0116C55.5661 30.6116 55.5661 30.2516 55.5661 29.9316C55.5661 29.745 55.5594 29.5183 55.5461 29.2516C55.5461 28.985 55.5528 28.7116 55.5661 28.4316C55.5794 28.1516 55.6128 27.885 55.6661 27.6316C55.7194 27.365 55.8061 27.145 55.9261 26.9716C56.0194 26.865 56.1528 26.785 56.3261 26.7316C56.4994 26.665 56.6794 26.6316 56.8661 26.6316C57.0661 26.6316 57.2528 26.665 57.4261 26.7316C57.6128 26.7983 57.7461 26.8916 57.8261 27.0116C57.8794 27.0916 57.9194 27.205 57.9461 27.3516C57.9728 27.4983 57.9928 27.665 58.0061 27.8516C58.0328 28.025 58.0461 28.2116 58.0461 28.4116C58.0594 28.5983 58.0661 28.7716 58.0661 28.9316ZM57.3061 24.8916C56.8928 24.9983 56.5461 24.9583 56.2661 24.7716C55.9994 24.5716 55.8328 24.2783 55.7661 23.8916C55.7128 23.6116 55.7328 23.365 55.8261 23.1516C55.9194 22.9383 56.0594 22.7783 56.2461 22.6716C56.4328 22.5516 56.6461 22.4983 56.8861 22.5116C57.1261 22.525 57.3661 22.6183 57.6061 22.7916C57.8328 22.9516 57.9928 23.1383 58.0861 23.3516C58.1928 23.565 58.2261 23.7716 58.1861 23.9716C58.1594 24.1716 58.0728 24.3583 57.9261 24.5316C57.7794 24.6916 57.5728 24.8116 57.3061 24.8916ZM65.4234 27.5116C65.8101 27.6716 66.1634 27.905 66.4834 28.2116C66.8034 28.505 67.0768 28.845 67.3034 29.2316C67.5434 29.6183 67.7234 30.0383 67.8434 30.4916C67.9768 30.9316 68.0434 31.3783 68.0434 31.8316C68.0568 32.5116 67.8968 33.1516 67.5634 33.7516C67.2434 34.3516 66.7168 34.8116 65.9834 35.1316C65.4234 35.3583 64.8434 35.5316 64.2434 35.6516C63.6568 35.7583 63.0434 35.8316 62.4034 35.8716V39.5316C62.4034 39.6116 62.3901 39.685 62.3634 39.7516C62.3501 39.8183 62.3434 39.885 62.3434 39.9516C62.3168 40.085 62.2834 40.205 62.2434 40.3116C62.2168 40.4183 62.1768 40.5316 62.1234 40.6516C62.0701 40.7316 62.0168 40.805 61.9634 40.8716C61.9101 40.9383 61.8501 41.005 61.7834 41.0716C61.4634 41.2316 61.1301 41.265 60.7834 41.1716C60.5701 41.1583 60.3968 41.0916 60.2634 40.9716C60.1434 40.8516 60.0568 40.725 60.0034 40.5916C59.9501 40.4583 59.9034 40.305 59.8634 40.1316C59.8501 40.065 59.8368 39.9983 59.8234 39.9316C59.8234 39.8783 59.8234 39.8183 59.8234 39.7516V28.6116C59.8234 28.5316 59.8234 28.4516 59.8234 28.3716C59.8368 28.2783 59.8501 28.185 59.8634 28.0916C59.8768 27.9316 59.9168 27.7716 59.9834 27.6116C60.1034 27.2783 60.3501 27.0516 60.7234 26.9316C61.0968 26.8116 61.5168 26.7583 61.9834 26.7716C62.3034 26.785 62.6301 26.8183 62.9634 26.8716C63.3101 26.925 63.6368 26.9916 63.9434 27.0716C64.2634 27.1383 64.5501 27.2116 64.8034 27.2916C65.0568 27.3716 65.2634 27.445 65.4234 27.5116ZM65.4634 31.8316C65.5168 31.4583 65.4701 31.145 65.3234 30.8916C65.1901 30.625 64.9968 30.4116 64.7434 30.2516C64.4901 30.0783 64.1968 29.945 63.8634 29.8516C63.5434 29.7583 63.2234 29.6916 62.9034 29.6516C62.8634 29.6383 62.7968 29.6316 62.7034 29.6316C62.6234 29.6316 62.5301 29.6316 62.4234 29.6316C62.4234 30.0583 62.4234 30.4716 62.4234 30.8716C62.4368 31.2583 62.4368 31.6783 62.4234 32.1316V33.4716C62.7301 33.4583 63.0501 33.425 63.3834 33.3716C63.7301 33.3183 64.0501 33.2316 64.3434 33.1116C64.6368 32.9916 64.8834 32.8316 65.0834 32.6316C65.2968 32.4316 65.4234 32.165 65.4634 31.8316Z" fill="#D8B14C"/>
</svg>
